<?xml version="1.0" encoding="us-ascii" standalone="no"?><svg xmlns="http://www.w3.org/2000/svg" xmlns:xlink="http://www.w3.org/1999/xlink" contentStyleType="text/css" height="106px" preserveAspectRatio="none" style="width:990px;height:106px;background:#FFFFFF;" version="1.1" viewBox="0 0 990 106" width="990px" zoomAndPan="magnify"><defs/><g><text fill="#000000" font-family="sans-serif" font-size="14" font-weight="bold" lengthAdjust="spacing" textLength="221" x="377.5" y="24.5332">FAISS Embedding Pipeline Flow</text><!--entity A--><g id="elem_A"><rect fill="#F1F1F1" height="55.2188" rx="2.5" ry="2.5" style="stroke:#181818;stroke-width:0.5;" width="128" x="7" y="45.6094"/><text fill="#000000" font-family="sans-serif" font-size="14" lengthAdjust="spacing" textLength="108" x="17" y="70.1426">Collect passages</text><text fill="#000000" font-family="sans-serif" font-size="14" lengthAdjust="spacing" textLength="63" x="17" y="87.752">per article</text></g><!--entity B--><g id="elem_B"><rect fill="#F1F1F1" height="55.2188" rx="2.5" ry="2.5" style="stroke:#181818;stroke-width:0.5;" width="317" x="195" y="45.6094"/><text fill="#000000" font-family="sans-serif" font-size="14" lengthAdjust="spacing" textLength="170" x="205" y="70.1426">Embed + normalize vectors</text><text fill="#000000" font-family="sans-serif" font-size="14" lengthAdjust="spacing" textLength="297" x="205" y="87.752">Model: sentence-transformers/all-MiniLM-L6-v2</text></g><!--entity C--><g id="elem_C"><rect fill="#F1F1F1" height="37.6094" rx="2.5" ry="2.5" style="stroke:#181818;stroke-width:0.5;" width="123" x="572" y="54.1094"/><text fill="#000000" font-family="sans-serif" font-size="14" lengthAdjust="spacing" textLength="103" x="582" y="78.6426">Build FAISS files</text></g><!--entity D--><g id="elem_D"><rect fill="#F1F1F1" height="55.2188" rx="2.5" ry="2.5" style="stroke:#181818;stroke-width:0.5;" width="229" x="755" y="45.6094"/><text fill="#000000" font-family="sans-serif" font-size="14" lengthAdjust="spacing" textLength="209" x="765" y="70.1426">Save .faiss + metadata/mappings</text><text fill="#000000" font-family="sans-serif" font-size="14" lengthAdjust="spacing" textLength="179" x="765" y="87.752">for query-to-passage lookup</text></g><!--link A to B--><g id="link_A_B"><path d="M135.3,73.1094 C153.32,73.1094 167.79,73.1094 188.79,73.1094 " fill="none" id="A-to-B" style="stroke:#181818;stroke-width:1.0;"/><polygon fill="#181818" points="194.79,73.1094,185.79,69.1094,189.79,73.1094,185.79,77.1094,194.79,73.1094" style="stroke:#181818;stroke-width:1.0;"/></g><!--link B to C--><g id="link_B_C"><path d="M512.18,73.1094 C533.38,73.1094 547.99,73.1094 565.99,73.1094 " fill="none" id="B-to-C" style="stroke:#181818;stroke-width:1.0;"/><polygon fill="#181818" points="571.99,73.1094,562.99,69.1094,566.99,73.1094,562.99,77.1094,571.99,73.1094" style="stroke:#181818;stroke-width:1.0;"/></g><!--link C to D--><g id="link_C_D"><path d="M695.07,73.1094 C713.35,73.1094 728.04,73.1094 748.61,73.1094 " fill="none" id="C-to-D" style="stroke:#181818;stroke-width:1.0;"/><polygon fill="#181818" points="754.61,73.1094,745.61,69.1094,749.61,73.1094,745.61,77.1094,754.61,73.1094" style="stroke:#181818;stroke-width:1.0;"/></g><!--SRC=[JKyzQyGm3DtzAyIjnJteqA538ScrS721GjOkQgoaeehjivMKzjVNDJTaaiHxUX_AAWIlpNaOu6Nv8EVOp_36aOHz0IHy6w59GGCadZyL72SQbOCtvdz1FnU1GnT4oWKHSyQPyhkFb02JyYXq0CpGxEdL2kx0XxIWy2_1Li2GobyV7CaJPF9AVYIh2NsU2ezIFgA8xTdpfRUNHxizLELshzokBEvMQ6AXN2dTdZBWHd0_8UTS8Yoaw53nk62CfNo9KDpWkbBwiHhihH5825zhh6edOngmzhaujtLsfglpz0S0]--></g></svg>