<?xml version="1.0" encoding="us-ascii" standalone="no"?><svg xmlns="http://www.w3.org/2000/svg" xmlns:xlink="http://www.w3.org/1999/xlink" contentStyleType="text/css" height="260px" preserveAspectRatio="none" style="width:2043px;height:260px;background:#FFFFFF;" version="1.1" viewBox="0 0 2043 260" width="2043px" zoomAndPan="magnify"><defs/><g><text fill="#000000" font-family="sans-serif" font-size="14" font-weight="bold" lengthAdjust="spacing" textLength="147" x="941" y="24.5332">Topic Inference Flow</text><!--entity A--><g id="elem_A"><rect fill="#F1F1F1" height="55.2188" rx="2.5" ry="2.5" style="stroke:#181818;stroke-width:0.5;" width="116" x="7" y="137.0894"/><text fill="#000000" font-family="sans-serif" font-size="14" lengthAdjust="spacing" textLength="96" x="17" y="161.6226">Input passages</text><text fill="#000000" font-family="sans-serif" font-size="14" lengthAdjust="spacing" textLength="68" x="17" y="179.232">+ title hints</text></g><!--entity B--><g id="elem_B"><rect fill="#F1F1F1" height="37.6094" rx="2.5" ry="2.5" style="stroke:#181818;stroke-width:0.5;" width="107" x="183" y="145.5894"/><text fill="#000000" font-family="sans-serif" font-size="14" lengthAdjust="spacing" textLength="87" x="193" y="170.1226">Normalize text</text></g><!--entity C--><g id="elem_C"><rect fill="#F1F1F1" height="55.2188" rx="2.5" ry="2.5" style="stroke:#181818;stroke-width:0.5;" width="247" x="350" y="137.0894"/><text fill="#000000" font-family="sans-serif" font-size="14" lengthAdjust="spacing" textLength="164" x="360" y="161.6226">Extract candidate phrases</text><text fill="#000000" font-family="sans-serif" font-size="14" lengthAdjust="spacing" textLength="227" x="360" y="179.232">(1-gram, 2-gram, 3-gram, NER, title)</text></g><!--entity D--><g id="elem_D"><rect fill="#F1F1F1" height="55.2188" rx="2.5" ry="2.5" style="stroke:#181818;stroke-width:0.5;" width="197" x="657" y="61.0894"/><text fill="#000000" font-family="sans-serif" font-size="14" lengthAdjust="spacing" textLength="110" x="667" y="85.6226">Score candidates</text><text fill="#000000" font-family="sans-serif" font-size="14" lengthAdjust="spacing" textLength="177" x="667" y="103.232">(freq + position + title boost)</text></g><!--entity E--><g id="elem_E"><rect fill="#F1F1F1" height="37.6094" rx="2.5" ry="2.5" style="stroke:#181818;stroke-width:0.5;" width="179" x="914" y="74.5894"/><text fill="#000000" font-family="sans-serif" font-size="14" lengthAdjust="spacing" textLength="159" x="924" y="99.1226">Filter noise + deduplicate</text></g><!--entity F--><g id="elem_F"><rect fill="#F1F1F1" height="55.2188" rx="2.5" ry="2.5" style="stroke:#181818;stroke-width:0.5;" width="137" x="1153" y="142.0894"/><text fill="#000000" font-family="sans-serif" font-size="14" lengthAdjust="spacing" textLength="117" x="1163" y="166.6226">Embed candidates</text><text fill="#000000" font-family="sans-serif" font-size="14" lengthAdjust="spacing" textLength="89" x="1163" y="184.232">and passages</text></g><!--entity G--><g id="elem_G"><rect fill="#F1F1F1" height="55.2188" rx="2.5" ry="2.5" style="stroke:#181818;stroke-width:0.5;" width="125" x="1350" y="142.0894"/><text fill="#000000" font-family="sans-serif" font-size="14" lengthAdjust="spacing" textLength="105" x="1360" y="166.6226">Cluster semantic</text><text fill="#000000" font-family="sans-serif" font-size="14" lengthAdjust="spacing" textLength="69" x="1360" y="184.232">candidates</text></g><!--entity H--><g id="elem_H"><rect fill="#F1F1F1" height="55.2188" rx="2.5" ry="2.5" style="stroke:#181818;stroke-width:0.5;" width="134" x="1535" y="142.0894"/><text fill="#000000" font-family="sans-serif" font-size="14" lengthAdjust="spacing" textLength="114" x="1545" y="166.6226">Combine scores +</text><text fill="#000000" font-family="sans-serif" font-size="14" lengthAdjust="spacing" textLength="77" x="1545" y="184.232">MMR rerank</text></g><!--entity I--><g id="elem_I"><rect fill="#F1F1F1" height="37.6094" rx="2.5" ry="2.5" style="stroke:#181818;stroke-width:0.5;" width="111" x="1729" y="186.5894"/><text fill="#000000" font-family="sans-serif" font-size="14" lengthAdjust="spacing" textLength="91" x="1739" y="211.1226">Pick best topic</text></g><!--entity J--><g id="elem_J"><rect fill="#F1F1F1" height="55.2188" rx="2.5" ry="2.5" style="stroke:#181818;stroke-width:0.5;" width="137" x="1900" y="142.0894"/><text fill="#000000" font-family="sans-serif" font-size="14" lengthAdjust="spacing" textLength="89" x="1910" y="166.6226">Output topic +</text><text fill="#000000" font-family="sans-serif" font-size="14" lengthAdjust="spacing" textLength="117" x="1910" y="184.232">ranked candidates</text></g><!--link A to B--><g id="link_A_B"><path d="M123.38,151.7294 C142.59,150.7994 157.9102,150.5297 176.7502,151.6297 " fill="none" id="A-to-B" style="stroke:#181818;stroke-width:1.0;"/><polygon fill="#181818" points="182.74,151.9794,173.9884,147.4616,177.7485,151.6879,173.5222,155.448,182.74,151.9794" style="stroke:#181818;stroke-width:1.0;"/></g><!--link A to B--><!--link B to C--><g id="link_B_C"><path d="M290.24,153.1094 C308.1,151.8594 322.8701,151.2151 343.8501,151.1251 " fill="none" id="B-to-C" style="stroke:#181818;stroke-width:1.0;"/><polygon fill="#181818" points="349.85,151.0994,340.8329,147.138,344.85,151.1208,340.8672,155.1379,349.85,151.0994" style="stroke:#181818;stroke-width:1.0;"/></g><!--link B to C--><!--link C to D--><g id="link_C_D"><path d="M575.98,137.0394 C602.28,129.9094 624.7397,123.8117 650.8497,116.7217 " fill="none" id="C-to-D" style="stroke:#181818;stroke-width:1.0;"/><polygon fill="#181818" points="656.64,115.1494,646.9063,113.6476,651.8147,116.4596,649.0027,121.3681,656.64,115.1494" style="stroke:#181818;stroke-width:1.0;"/></g><!--link D to E--><g id="link_D_E"><path d="M854.08,77.3294 C873.8,77.3194 888.437,77.5288 907.827,78.4688 " fill="none" id="D-to-E" style="stroke:#181818;stroke-width:1.0;"/><polygon fill="#181818" points="913.82,78.7594,905.0242,74.3283,908.8259,78.5173,904.6369,82.3189,913.82,78.7594" style="stroke:#181818;stroke-width:1.0;"/></g><!--link D to E--><!--link E to F--><g id="link_E_F"><path d="M1093.29,111.5194 C1121.1,120.7394 1145.1617,129.4407 1168.7817,139.6407 " fill="none" id="E-to-F" style="stroke:#181818;stroke-width:1.0;"/><polygon fill="#181818" points="1174.29,142.0194,1167.6133,134.7791,1169.6997,140.0371,1164.4417,142.1235,1174.29,142.0194" style="stroke:#181818;stroke-width:1.0;"/></g><!--link E to F--><!--link F to G--><g id="link_F_G"><path d="M1290.2,169.5894 C1309.69,169.5894 1324.84,169.5894 1343.93,169.5894 " fill="none" id="F-to-G" style="stroke:#181818;stroke-width:1.0;"/><polygon fill="#181818" points="1349.93,169.5894,1340.93,165.5894,1344.93,169.5894,1340.93,173.5894,1349.93,169.5894" style="stroke:#181818;stroke-width:1.0;"/></g><!--link G to H--><g id="link_G_H"><path d="M1475.15,156.8194 C1494.26,155.9194 1509.3947,155.6114 1528.7947,156.3814 " fill="none" id="G-to-H" style="stroke:#181818;stroke-width:1.0;"/><polygon fill="#181818" points="1534.79,156.6194,1525.9557,152.2656,1529.7939,156.4211,1525.6384,160.2593,1534.79,156.6194" style="stroke:#181818;stroke-width:1.0;"/></g><!--link G to H--><!--link H to I--><g id="link_H_I"><path d="M1669.19,169.7194 C1694.64,173.8594 1717.096,178.369 1739.126,184.879 " fill="none" id="H-to-I" style="stroke:#181818;stroke-width:1.0;"/><polygon fill="#181818" points="1744.88,186.5794,1737.3825,180.1928,1740.085,185.1624,1735.1154,187.8649,1744.88,186.5794" style="stroke:#181818;stroke-width:1.0;"/></g><!--link H to I--><!--link I to J--><g id="link_I_J"><path d="M1840.11,194.7894 C1858.85,191.0794 1874.1735,188.0411 1893.8335,184.1611 " fill="none" id="I-to-J" style="stroke:#181818;stroke-width:1.0;"/><polygon fill="#181818" points="1899.72,182.9994,1890.1158,180.8177,1894.8146,183.9675,1891.6648,188.6663,1899.72,182.9994" style="stroke:#181818;stroke-width:1.0;"/></g><!--link A to D--><!--link B to E--><!--link C to F--><!--link D to G--><!--link E to H--><!--link F to I--><!--link H to J--><!--SRC=[PLBBJiCm4BpxArQSG6qFm1sfJPCsI3nKk54EZhrjBH8xs5krukk9jobDmccYyNXcrXioL2AykzeeoEq6FLg5a9Nk84hS4903RxOx0cqyAZBE2X4_fDqszwvoM-y9QXc2t69Osn4G6-wCfN05Ci2qAtzslfAb-K4WF1AVpxhdwP6yL0HAMcsq98HwvsM8pjUtawsNrHZkMhnlyJbTZK-fDsoOz0g-AUVnuXUDDXw_OGIr2oRE0-VEXNE1JXxphaLcIa8Frfc0ZLYZtjUbKOqRQzFU05M1kXVNVFwz3-kpNh-at8Ve7h2IbenQsyjbbYzwQbSLnYA4E5M0qTe-FQt0evVsYzNBhlhLg2yeCCGjDljbGTvBVzbJt1yVHxVeq-lFTnw5cC9ayj3iQiQOY8HnBkQCgKWPCv4nBiI2SIcMZBd86Kz67pkZDTfF_g_EhaCoYTP3adE6P1R3XYGd3ycy5w_TmV8CitzS6kSRS5ctKCijkdrQRXdVOC3btJOjz_WB]--></g></svg>